<svg width="100mm" height="100mm" aria-labelledby="graph-title" role="img" version="1.1" viewBox="0 0 100 100" xmlns="http://www.w3.org/2000/svg" xmlns:cc="http://creativecommons.org/ns#" xmlns:dc="http://purl.org/dc/elements/1.1/" xmlns:rdf="http://www.w3.org/1999/02/22-rdf-syntax-ns#"><title>Random G(6,p) graph.</title><desc>Undirected graph with N=6 nodes and L=9 edges.</desc><g fill="none" stroke="#000" stroke-width=".5292"><path d="m9.719 50.03 20.12-34.85"/><path d="m29.84 15.18 60.73 35.06"/><path d="m90.58 50.24h-80.92"/><path d="m29.84 15.18v69.36"/><path d="m29.84 84.54 40.3-69.8"/><path d="m70.14 14.74v70.55"/><path d="m90.58 50.24-20.07 34.77"/><path d="m70.14 85.28h-40.39"/><path d="m70.14 85.28-60.6-34.99 60.61-35"/></g><g fill="#5d5d5d" fill-rule="evenodd" stroke="#000" stroke-width=".2646"><circle cx="10" cy="50" r="4"/><circle transform="rotate(60)" cx="28.3" cy="-18.3" r="4"/><circle transform="rotate(120)" cx="-21.7" cy="-68.3" r="4"/><circle transform="scale(-1)" cx="-90" cy="-50" r="4"/><circle transform="rotate(240)" cx="-108.3" cy="18.3" r="4"/><circle transform="rotate(-60)" cx="-58.3" cy="68.3" r="4"/></g><text x="80.422836" y="94.871376" fill="#000000" font-family="serif" font-size="8pt">L=9</text><metadata><rdf:RDF><cc:Work rdf:about=""><dc:description>Undirected graph with N=6 nodes and L=9 edges.</dc:description><dc:title>Random G(6,p) graph.</dc:title></cc:Work></rdf:RDF></metadata></svg>
